<?xml version="1.0" encoding="UTF-8"?>
<svg id="Layer_1" data-name="Layer 1" xmlns="http://www.w3.org/2000/svg" viewBox="0 0 480 480">
  <defs>
    <style>
      .cls-1 {
        fill: #fff;
        stroke-width: 0px;
      }
    </style>
  </defs>
  <path class="cls-1" d="m354.66,279.9c-1.03-15.93-.52-32.14-3.36-47.74-10.06-55.17-59.13-95.1-118.5-91.86-54.64,2.98-99.31,45.16-105.38,98.97-1.99,17.63-.9,35.61-1.16,53.43-.1,7.17-.16,14.34-.02,21.5.09,4.52-1.87,6.44-6.31,6.12-1.99-.14-4,.04-6-.09-6.37-.42-10.58-3.88-12.1-10.05-.48-1.93-.83-3.95-.81-5.93.13-20.99-.68-42.05.72-62.96,4.14-61.99,53.77-115.11,115.41-124.65,78.6-12.16,149.49,40.13,160.51,118.91,1.74,12.46,1.11,25.26,1.34,37.91.18,10,.19,20.01-.05,30.01-.32,13.56-8.39,19.59-21.67,16.69-3.7-.81-3.48-3.56-3.53-6.19-.11-5.67-.09-11.34-.11-17-.01-5.67,0-11.34,0-17,.34-.02.68-.04,1.02-.06Z"/>
  <path class="cls-1" d="m211.13,305.6c0,10.33.11,20.66-.02,30.99-.17,13.5-7.41,20.64-20.81,20.71-8.66.05-17.33.09-25.99-.03-10.68-.15-17.88-6.2-18.73-16.86-.81-10.1-.56-20.3-.63-30.46-.08-11.33-.18-22.67.06-33.99.35-16.68,7.14-23.21,23.72-23.25,7.16-.02,14.33-.07,21.49.03,13.28.18,20.67,7.49,20.88,20.87.17,10.66.03,21.33.04,31.99Z"/>
  <path class="cls-1" d="m336.18,304.96c0,10.5.1,21-.02,31.49-.16,13.82-7.29,20.8-21.13,20.86-8.5.04-16.99.08-25.49-.03-10.86-.14-18.38-6.44-18.87-17.23-.74-16.13-.58-32.3-.65-48.46-.03-7.16-.07-14.35.59-21.46.96-10.26,7.76-16.78,18.07-17.23,9.64-.42,19.33-.4,28.98-.03,10.96.43,18.15,7.92,18.43,19.08.28,10.99.06,21.99.06,32.99.01,0,.03,0,.04,0Z"/>
</svg>