<?xml version="1.0" encoding="UTF-8"?>
<svg id="Layer_1" data-name="Layer 1" xmlns="http://www.w3.org/2000/svg" viewBox="0 0 480 480">
  <defs>
    <style>
      .cls-1 {
        fill: #fff;
        stroke-width: 0px;
      }
    </style>
  </defs>
  <path class="cls-1" d="m146.75,275.6c-7.28-3.63-13.22-6.54-19.1-9.57-2.06-1.06-4.22-2.15-5.87-3.71-4.26-4.04-3.43-10.04,2.16-13.46,5.24-3.21,10.91-5.73,16.37-8.59,1.73-.9,3.4-1.9,6.06-3.39-2.65-1.53-4.39-2.63-6.21-3.57-5.33-2.74-10.84-5.18-16.02-8.19-6.48-3.76-6.66-10.64-.63-15.04,1.6-1.17,3.42-2.07,5.2-2.97,36.03-18.1,72.12-36.1,108.08-54.36,5.47-2.78,10.07-2.73,15.52.02,36.43,18.42,72.99,36.6,109.5,54.87,1.34.67,2.7,1.32,3.98,2.1,6.74,4.18,6.9,11.5.09,15.61-4.98,3.01-10.34,5.39-15.51,8.08-1.59.83-3.13,1.75-5.64,3.17,2.4,1.44,3.96,2.48,5.62,3.34,5.04,2.59,10.23,4.9,15.15,7.69,7.15,4.05,7.3,11.65.21,15.83-5.59,3.3-11.53,5.98-17.3,8.96-1.59.82-3.13,1.74-5.64,3.15,2.24,1.35,3.66,2.33,5.17,3.1,5.93,3.05,12.02,5.79,17.8,9.1,6.94,3.97,6.84,11.29.04,15.49-1.27.79-2.64,1.43-3.98,2.1-35.77,17.89-71.59,35.68-107.26,53.76-5.81,2.94-10.75,2.88-16.5.03-36.45-18.02-73-35.82-109.52-53.69-1.05-.51-2.09-1.04-3.13-1.57-3.46-1.76-6.83-4.39-5.95-8.31.71-3.15,3.2-6.59,5.9-8.45,4.76-3.28,10.29-5.44,15.47-8.11,1.58-.81,3.08-1.76,5.97-3.42Zm.92-58.26c2.42,1.4,3.92,2.36,5.5,3.15,29.07,14.5,58.18,28.91,87.18,43.53,4.15,2.1,7.56,2.09,11.69-.03,28.45-14.6,57.02-28.99,85.53-43.47,1.41-.72,2.71-1.66,4.89-3.02-2.33-1.39-3.78-2.38-5.35-3.16-28.89-14.47-57.83-28.86-86.67-43.44-3.97-2.01-7.25-2.05-11.24-.03-28.67,14.55-57.44,28.9-86.16,43.34-1.56.78-3.02,1.75-5.37,3.13Zm-.42,77.7c2.81,1.63,4.03,2.45,5.35,3.09,29.76,14.55,59.55,29.04,89.28,43.65,3.34,1.64,6.18,1.48,9.43-.15,28.7-14.44,57.46-28.77,86.19-43.16,1.42-.71,2.73-1.64,5.28-3.19-4.52-2.31-8.21-3.77-11.42-5.94-5.85-3.94-10.98-3.18-17.07.07-19.54,10.41-39.5,20.01-59.07,30.36-6.27,3.31-11.59,3.26-17.84.11-21.55-10.87-43.29-21.37-65-31.92-2.01-.98-4.78-2.34-6.49-1.68-5.97,2.29-11.63,5.38-18.64,8.76Zm195.46-39.53c-4.96-2.49-8.75-4.13-12.28-6.22-3.99-2.37-7.5-2.23-11.66-.07-21.14,10.96-42.51,21.47-63.58,32.56-6.29,3.31-11.6,3.26-17.84.06-21.64-11.08-43.47-21.79-65.25-32.58-1.9-.94-4.44-2.48-5.98-1.89-6.08,2.3-11.87,5.35-19.06,8.72,3.28,1.78,4.96,2.77,6.71,3.62,28.88,14.11,57.8,28.12,86.6,42.37,4.18,2.07,7.58,2,11.69-.11,28.3-14.52,56.7-28.83,85.06-43.23,1.44-.73,2.81-1.61,5.59-3.23Z"/>
</svg>