<?xml version="1.0" encoding="UTF-8"?>
<svg id="Layer_1" data-name="Layer 1" xmlns="http://www.w3.org/2000/svg" viewBox="0 0 480 480">
  <defs>
    <style>
      .cls-1 {
        fill: #fff;
        stroke-width: 0px;
      }
    </style>
  </defs>
  <path class="cls-1" d="m113.34,228.9h50.04c.32-5.75-1.61-7.77-6.06-7.75-15.17.07-30.34,0-45.5-.08-9.9-.06-19.32-6.97-22.57-16.96,2.04-.19,3.91-.51,5.79-.51,18.17-.04,36.34-.02,54.51-.04,1.83,0,3.84.35,5.44-.32,1.31-.55,3.02-2.44,2.94-3.63-.08-1.3-1.88-3.29-3.16-3.52-3.08-.55-6.31-.27-9.47-.27-16.83,0-33.68.36-50.5-.1-11.78-.32-20.42-6.74-25.75-17.86-.65-1.34-.86-2.92-1.5-5.16h345.01c-1.1,2.94-1.65,5.49-2.9,7.58-5.79,9.74-14.11,15.39-25.15,15.51-18.33.2-36.67.03-55,.03-1.66,0-3.52-.33-4.93.33-1.21.56-2.61,2.3-2.65,3.55-.03,1.17,1.41,2.99,2.58,3.46,1.62.66,3.61.39,5.44.4,18.17.02,36.34,0,54.51.03,1.94,0,3.88.2,5.88.31-1.74,9.18-11.93,17.08-21.83,17.16-15.17.12-30.34.17-45.5.08-4.24-.02-6.74,1.4-6.56,7.38h49.9c.22.54.43,1.08.65,1.61-.97,1.41-1.76,3.01-2.94,4.2-7.49,7.6-16.77,10.59-26.88,10.91-8.49.27-17.01-.19-25.49.23-2.26.11-4.85,1.78-6.56,3.52-7.14,7.3-13.85,15.08-21.05,22.31-2.48,2.49-3.56,4.69-2.8,8.22,2.43,11.39,9.63,18.09,19.35,22.41,7.96,3.53,16.08,6.7,23.88,10.59,9.71,4.85,16,12.27,15.31,24.65-.42,7.53-.07,15.11-.08,22.66-.01,11.65-1.41,13.16-12.29,13.16-55.67,0-111.35,0-167.02,0-3.5,0-7,.03-10.5-.02-7.31-.1-9.65-2.47-9.71-10.04-.08-8.61.32-17.24-.11-25.82-.63-12.65,5.91-20.01,15.82-24.85,7.83-3.83,15.95-6.99,23.89-10.58,9.72-4.39,17-11.27,18.75-22.78.34-2.22-1-5.38-2.55-7.15-6.97-7.97-14.17-15.72-21.57-23.24-1.68-1.71-4.44-2.96-6.78-3.09-10.96-.64-21.98-.38-32.91-1.31-7.27-.62-13.66-4.39-18.95-9.83-1.11-1.14-1.97-2.55-2.95-3.83.16-.52.32-1.03.48-1.55Zm126.37,128.8c7.33,0,14.65,0,21.98,0,19.15,0,38.3-.1,57.45.06,4.54.04,6.35-1.72,6.11-6.49-.24-4.55-.22-9.13,0-13.69.23-4.97-1.76-8.65-5.73-10.83-4.99-2.74-10.05-5.7-15.42-7.28-17.76-5.24-31.5-14.83-37.09-34.52-.3-1.06-2.89-2.42-3.96-2.08-15.44,4.94-30.79,5.01-46.22-.06-1.05-.35-3.64,1.07-3.95,2.16-5.54,19.45-19.05,29.13-36.64,34.34-5.07,1.5-9.88,4.11-14.64,6.58-4.89,2.54-7.45,6.7-6.97,12.78.3,3.84.03,7.72.06,11.58.05,7.07.35,7.43,7.08,7.43,25.98.03,51.96.01,77.94.01Zm.13-170.26c-20.16,0-40.33-.02-60.49.01-6.04.01-6.85.84-6.53,6.9.9,17.22,5.57,33.09,15.25,47.19,18.35,26.7,49.16,36.49,75.95,23.9,26.27-12.35,42.18-40.92,43.15-72.36.16-5.03-2.5-5.69-6.33-5.68-20.33.08-40.66.04-60.99.03Z"/>
</svg>