<?xml version="1.0" encoding="UTF-8"?>
<svg id="Layer_1" data-name="Layer 1" xmlns="http://www.w3.org/2000/svg" viewBox="0 0 480 480">
  <defs>
    <style>
      .cls-1 {
        fill: #fff;
        stroke-width: 0px;
      }
    </style>
  </defs>
  <path class="cls-1" d="m140.11,270.39c-2.82,1.44-4.38,2.36-6.04,3.05-4.94,2.07-9.81.64-13.32-3.81-2.99-3.79-3.35-9.73.05-13.34,7.63-8.13,15.54-15.99,23.53-23.76,3.4-3.3,7.68-3.99,12.03-1.78,4.33,2.2,6.7,5.56,6.67,10.76-.09,13.66.07,27.33.22,41,.24,22.31,9.69,39.36,29.14,50.63,7.85,4.55,16.52,5.94,25.41,6.41,10.59.56,10.46.56,10.5-10.32.06-18,.15-36,.52-53.99.15-7.16,3.69-10.94,9.79-11.72,6.93-.89,12.61,3.41,13.02,10.53.45,7.81.3,15.66.33,23.49.05,12.5.16,25-.04,37.5-.07,4.32,1.13,5.58,5.53,4.64,8.57-1.84,17.61-2.13,25.81-4.93,16.07-5.48,26.17-17.64,30.84-33.62,2.24-7.68,2.51-16.05,2.85-24.14.5-11.81.36-23.66.31-35.49-.02-5.1,2.15-8.71,6.63-10.78,4.5-2.08,8.83-1.41,12.47,2.07,7.58,7.26,15.22,14.45,22.57,21.94,4.55,4.64,4.57,11.39.64,15.88-4.06,4.64-10.03,5.31-15.77,1.8-.81-.5-1.71-.87-3.58-1.81,0,2.6-.08,4.48.01,6.36.95,20.09-3,38.76-15.75,54.92-11.09,14.06-25.19,23.7-42.58,28.06-5.74,1.44-11.76,1.92-17.69,2.37-7.94.59-12.04,4.61-12.28,12.71-.07,2.33-.08,4.68-.41,6.98-.83,5.86-5.55,9.92-11.29,9.91-6.16-.01-10.58-4.01-11.28-10.3-.31-2.81-.39-5.65-.66-8.47-.65-6.72-4.71-10.73-11.37-10.87-27.77-.55-49.18-12.76-64.59-35.54-9.04-13.36-12.86-28.37-12.26-44.51.13-3.59.02-7.19.02-11.79Z"/>
  <path class="cls-1" d="m238.94,241.94c-14.32,0-28.64.05-42.96-.02-6.37-.03-10.46-3.5-11.15-9.15-.8-6.64,1.93-11.64,8.47-12.57,7.52-1.08,15.24-.85,22.88-.96,12.07-.17,12.07-.09,12.09-12.12,0-1.33-.12-2.68.04-3.99.55-4.41-.99-6.64-5.52-8.4-29.46-11.42-36.62-50.62-13.96-72.72,12.25-11.95,26.91-14.47,42.41-11.63,11.16,2.04,20.19,9.18,26.6,18.9,17.09,25.92,3.74,57.25-22.33,66.94-1.46.54-2.92,3.01-3.1,4.72-.47,4.45-.1,8.98-.33,13.47-.17,3.31,1.19,4.41,4.38,4.4,8.66-.05,17.32-.06,25.97.22,8.93.28,14.18,5.74,13.23,13.32-.77,6.15-5.15,9.98-12.77,10.11-14.65.24-29.31.07-43.96.07v-.58Zm1.04-109.1c-11.82.01-21.12,9.43-21.07,21.37.04,11.13,9.26,20.48,20.28,20.58,11.81.1,21.92-9.35,22.06-20.63.14-11.58-9.58-21.33-21.27-21.32Z"/>
</svg>